<?xml version="1.0" encoding="utf-8"?>
<!-- Svg Vector Icons : http://www.onlinewebfonts.com/icon -->
<!DOCTYPE svg PUBLIC "-//W3C//DTD SVG 1.1//EN" "http://www.w3.org/Graphics/SVG/1.1/DTD/svg11.dtd">
<svg style="fill: #d14f4b" version="1.1" xmlns="http://www.w3.org/2000/svg" xmlns:xlink="http://www.w3.org/1999/xlink" x="0px" y="0px" viewBox="0 0 1000 1000" enable-background="new 0 0 1000 1000" xml:space="preserve">
<metadata> Svg Vector Icons : http://www.onlinewebfonts.com/icon </metadata>
<g><path d="M968.5,343.6c28.7-28.7,28.7-75.3,0-104c-28.7-28.7-75.3-28.7-104,0L544.9,559.1c-12.9,10-28.7,15.6-45.2,15.6c-16.5,0-32.4-5.6-45.2-15.6L135.6,240.2c-28.7-28.7-75.3-28.7-104,0c-28.7,28.7-28.7,75.3,0,104l416.1,416.1c13.8,13.8,32.5,21.5,52,21.5c19.5,0,38.2-7.7,52-21.5L968.5,343.6z"/></g>
</svg>