<?xml version="1.0" encoding="utf-8"?>
<!-- Svg Vector Icons : http://www.onlinewebfonts.com/icon -->
<!DOCTYPE svg PUBLIC "-//W3C//DTD SVG 1.1//EN" "http://www.w3.org/Graphics/SVG/1.1/DTD/svg11.dtd">
<svg style="fill: #4f565e" version="1.1" xmlns="http://www.w3.org/2000/svg" xmlns:xlink="http://www.w3.org/1999/xlink" x="0px" y="0px" viewBox="0 0 1000 1000" enable-background="new 0 0 1000 1000" xml:space="preserve">
<metadata> Svg Vector Icons : http://www.onlinewebfonts.com/icon </metadata>
<g><g transform="translate(0.000000,512.000000) scale(0.100000,-0.100000)"><path d="M8172,5010.1c-438.9-70.9-814.5-350.7-1148-852.9c-76.7-116.9-245.3-414-373.7-661.2c-260.6-502.1-377.6-697.6-601.8-1017.7c-249.1-352.6-348.8-431.2-548.1-429.3c-178.2,1.9-272.1,65.2-670.8,458c-387.1,381.4-419.7,402.5-622.9,400.5c-80.5-1.9-139.9-15.3-201.2-46c-86.2-42.2-613.3-544.3-613.3-584.5c0-24.9,3741.1-3766,3766-3766c38.3,0,542.4,527.1,586.5,613.3c53.7,107.3,57.5,297.1,7.7,412.1c-21.1,47.9-157.2,203.1-373.7,421.6c-345,350.7-419.7,452.3-448.5,609.4c-21.1,115,30.7,262.6,128.4,362.2c197.4,201.2,764.7,557.7,1450.8,914.2c837.5,433.1,1199.7,781.9,1345.4,1299.4c61.3,214.6,59.4,567.3,0,781.9c-147.6,517.5-529,900.8-1038.8,1044.5C8655,5013.9,8329.1,5035,8172,5010.1z M8944.4,4356.6c118.8-49.8,258.7-193.6,318.1-322c61.3-136.1,57.5-343.1-9.6-486.8c-134.2-291.3-467.6-433.1-770.4-329.6c-111.2,38.3-281.7,191.7-335.4,300.9c-168.6,348.8,1.9,749.4,368,868.2C8626.2,4423.7,8821.7,4410.2,8944.4,4356.6z"/><path d="M1753.6,717.1C983.1,115.3,318.1-409.8,272.1-453.9C130.3-588,67-793.1,116.9-965.6c17.2-67.1,57.5-124.6,151.4-224.2L396.7-1324l799.2,636.3C1634.7-338.9,1993.1-55.3,1993.1-61c0-3.8-293.2-356.5-651.6-780l-651.6-770.4L837.5-1761c126.5-128.4,151.4-145.6,178.2-122.7c15.3,13.4,412.1,364.1,881.6,780c469.6,415.9,866.3,764.7,881.6,774.3s5.7-13.4-21.1-49.8C2593-599.6,1399-2291.8,1399-2305.3c0-9.6,46-61.3,99.7-116.9l101.6-101.6l621,617.1c343,341.1,613.3,605.6,601.8,590.3c-9.6-15.3-235.7-341.1-500.2-720.6c-266.4-381.4-483-701.4-483-711c0-9.6,46-61.3,101.6-115l99.7-99.7l958.3,718.7c527,396.7,967.8,724.4,977.4,732.1c11.5,5.7,1.9-11.5-21.1-36.4c-63.2-72.8-1470-1730.6-1500.6-1767c-24.9-32.6-11.5-49.8,143.7-207c93.9-93.9,174.4-170.6,180.1-170.6s314.3,320.1,688,709.1c373.7,391,682.3,709.1,684.2,709.1c7.7,0-59.4-105.4-676.6-1071.3l-410.1-642l143.7-141.8l143.7-143.7l274.1,222.3c151.4,122.7,442.7,360.3,647.8,527c205.1,168.7,375.6,302.8,379.5,300.9c3.8-3.8-239.6-289.4-540.4-636.3l-550-628.6l132.2-126.5c95.8-92,153.3-132.2,220.4-149.5c172.5-49.8,381.4,15.3,517.5,159.1c99.7,107.3,2202.1,2849.9,2211.7,2886.3c3.8,17.2-657.4,693.8-1742.1,1778.5L3150.7,1809.5L1753.6,717.1z"/></g></g>
</svg>